<svg width="180" height="180" viewBox="0 0 180 180" fill="none" xmlns="http://www.w3.org/2000/svg">
  <rect width="180" height="180" transform="translate(0.256409 0.418701)" fill="#2E091E" />
  <path
    d="M123.587 18.4139C140.417 18.4139 153.414 28.979 149.581 44.2576C146.749 55.9604 134.085 58.236 127.753 54.01L127.753 52.5471C131.918 51.4094 131.585 43.1199 124.42 43.1199C121.087 43.1199 118.921 45.7205 118.421 47.671C115.422 59.3738 148.415 78.5534 141.416 114.312C135.917 142.431 112.422 162.423 82.262 162.423C36.1051 162.423 27.1069 126.015 31.1061 109.273C34.9386 93.1819 49.1023 79.2035 68.4316 79.2035C86.0946 79.2035 98.2587 93.1819 91.4268 111.386H90.0937C90.0937 104.397 81.2623 105.047 80.5957 110.899C79.5959 117.4 84.7615 121.301 89.4272 121.301C96.759 121.301 100.258 116.425 101.091 112.687C104.757 96.1076 79.4293 75.4651 84.2616 47.3459C87.261 29.6291 104.091 18.4139 123.587 18.4139Z"
    fill="#FFDE7A" />
</svg>
