<svg viewBox="0 0 529 95" xmlns="http://www.w3.org/2000/svg" color="#7a0019">
  <title>SmartyCards</title>
  <path
    d="M54.291 0.989014C63.987 0.989014 71.475 7.22901 69.267 16.253C67.635 23.165 60.339 24.509 56.691 22.013V21.149C59.091 20.477 58.899 15.581 54.771 15.581C52.851 15.581 51.603 17.117 51.315 18.269C49.587 25.181 68.595 36.509 64.563 57.629C61.395 74.237 47.859 86.045 30.483 86.045C3.89101 86.045 -1.29299 64.541 1.01101 54.653C3.21901 45.149 11.379 36.893 22.515 36.893C32.691 36.893 39.699 45.149 35.763 55.901H34.995C34.995 51.773 29.907 52.157 29.523 55.613C28.947 59.453 31.923 61.757 34.611 61.757C38.835 61.757 40.851 58.877 41.331 56.669C43.443 46.877 28.851 34.685 31.635 18.077C33.363 7.61301 43.059 0.989014 54.291 0.989014Z"
    fill="currentColor" />
  <path
    d="M72.5145 25.661H92.0985L90.9465 31.421C94.2105 26.045 99.4905 24.317 104.099 24.317C109.667 24.317 113.123 27.869 113.603 34.013C116.675 26.525 122.819 24.317 128.003 24.317C135.395 24.317 139.427 30.749 136.931 40.637L134.435 50.621C133.667 53.693 134.051 55.421 135.875 55.421C137.507 55.421 138.179 54.173 138.659 53.021H139.331C137.123 68.573 130.499 75.005 122.243 75.005C114.851 75.005 110.915 68.765 113.315 58.685L116.675 44.861C117.443 41.789 117.155 40.061 115.715 40.061C114.179 40.061 113.315 41.213 111.203 50.333L106.691 73.661H87.1065L92.7705 44.861C93.3465 41.789 93.2505 40.061 91.8105 40.061C90.2745 40.061 89.4105 41.309 86.9145 52.157L82.7865 73.661H63.2025L72.5145 25.661Z"
    fill="currentColor" />
  <path
    d="M187.824 25.661L183.024 50.621C182.448 53.693 182.448 55.421 184.368 55.421C186 55.421 186.864 54.173 187.152 53.021H187.824C185.616 68.573 178.992 75.005 170.736 75.005C165.648 75.005 162.576 71.261 161.808 65.597C158.736 72.797 152.88 75.005 149.328 75.005C141.744 75.005 135.12 67.613 138.96 47.837C141.648 34.013 149.808 24.317 158.64 24.317C162.096 24.317 166.032 26.237 167.184 31.325L168.24 25.661H187.824ZM159.312 47.453C158.448 51.869 158.736 55.421 160.464 55.421C161.136 55.421 162.096 54.653 163.056 52.445L165.072 41.981C164.976 40.637 164.4 40.061 163.824 40.061C161.904 40.061 160.272 42.653 159.312 47.453Z"
    fill="currentColor" />
  <path
    d="M192.421 25.661H212.005L210.853 31.421C214.117 26.045 219.109 24.317 222.277 24.317C227.653 24.317 230.245 29.021 229.477 34.493C228.517 41.789 221.701 48.509 211.525 48.701L211.237 47.837C212.773 45.821 213.349 43.901 213.349 42.557C213.349 41.021 212.677 40.061 211.813 40.061C210.181 40.061 209.317 41.309 207.109 50.813L202.693 73.661H183.109L192.421 25.661Z"
    fill="currentColor" />
  <path
    d="M232.686 25.661H234.702L236.334 17.213L256.878 12.221L254.286 25.661H258.318L255.726 39.101H251.694L249.39 50.813C248.814 53.885 248.91 55.421 251.406 55.421C253.326 55.421 254.094 54.173 254.67 53.021H255.342C253.038 68.573 245.934 75.005 237.198 75.005C229.806 75.005 226.254 68.861 228.27 58.685L232.11 39.101H230.094L232.686 25.661Z"
    fill="currentColor" />
  <path
    d="M302.833 25.661L293.809 72.125C290.737 87.965 279.505 94.205 271.729 94.205C259.537 94.205 254.257 77.693 271.057 72.605L271.729 73.373C269.809 74.525 269.809 76.541 271.345 76.541C273.073 76.541 273.841 74.333 274.417 71.165L275.377 66.173C272.113 70.781 267.217 72.221 262.993 72.221C255.601 72.221 251.857 67.037 253.777 57.341L259.921 25.661H279.505L274.609 50.909C274.033 53.981 274.129 55.421 275.569 55.421C276.529 55.421 277.201 55.037 277.969 53.021L283.249 25.661H302.833Z"
    fill="currentColor" />
  <path
    d="M345.779 2.62102C360.947 2.62102 369.587 11.645 367.283 25.085C365.075 37.757 355.955 45.917 345.875 45.917C338.675 45.917 333.395 40.829 334.835 33.629C335.795 28.541 340.307 24.317 344.531 23.069L344.915 23.933C344.147 24.509 343.571 25.469 343.475 26.333C343.379 27.965 344.339 29.405 346.259 29.405C348.371 29.405 350.771 27.293 351.539 24.221C352.403 20.669 350.291 17.501 346.547 17.501C340.883 17.501 333.779 23.261 331.667 35.069C329.075 49.373 335.315 55.517 343.859 55.517C348.755 55.517 354.803 52.253 356.531 46.205H357.011C359.411 49.181 360.563 56.477 359.411 60.989C356.531 72.989 347.027 79.229 334.163 79.229C314.195 79.229 298.643 63.389 303.923 37.469C308.531 14.909 330.323 2.62102 345.779 2.62102Z"
    fill="currentColor" />
  <path
    d="M411.324 25.661L406.524 50.621C405.948 53.693 405.948 55.421 407.868 55.421C409.5 55.421 410.364 54.173 410.652 53.021H411.324C409.116 68.573 402.492 75.005 394.236 75.005C389.148 75.005 386.076 71.261 385.308 65.597C382.236 72.797 376.38 75.005 372.828 75.005C365.244 75.005 358.62 67.613 362.46 47.837C365.148 34.013 373.308 24.317 382.14 24.317C385.596 24.317 389.532 26.237 390.684 31.325L391.74 25.661H411.324ZM382.812 47.453C381.948 51.869 382.236 55.421 383.964 55.421C384.636 55.421 385.596 54.653 386.556 52.445L388.572 41.981C388.476 40.637 387.9 40.061 387.324 40.061C385.404 40.061 383.772 42.653 382.812 47.453Z"
    fill="currentColor" />
  <path
    d="M415.921 25.661H435.505L434.353 31.421C437.617 26.045 442.609 24.317 445.777 24.317C451.153 24.317 453.745 29.021 452.977 34.493C452.017 41.789 445.201 48.509 435.025 48.701L434.737 47.837C436.273 45.821 436.849 43.901 436.849 42.557C436.849 41.021 436.177 40.061 435.313 40.061C433.681 40.061 432.817 41.309 430.609 50.813L426.193 73.661H406.609L415.921 25.661Z"
    fill="currentColor" />
  <path
    d="M503.863 3.58101L494.743 50.621C494.167 53.693 494.167 55.421 496.087 55.421C497.719 55.421 498.391 54.173 498.871 53.021H499.543C497.335 68.573 490.711 75.005 482.455 75.005C477.367 75.005 474.295 71.261 473.527 65.597C470.455 72.797 464.599 75.005 461.047 75.005C453.463 75.005 446.839 67.613 450.679 47.837C453.367 34.013 461.527 24.317 470.359 24.317C473.815 24.317 477.751 26.237 478.903 31.325L484.279 3.58101H503.863ZM471.031 47.453C470.167 51.869 470.455 55.421 472.183 55.421C472.855 55.421 473.815 54.653 474.775 52.445L476.791 42.077C476.695 40.637 476.119 40.061 475.543 40.061C473.623 40.061 471.991 42.653 471.031 47.453Z"
    fill="currentColor" />
  <path
    d="M527.465 27.677C526.121 27.389 524.777 28.157 524.297 29.693C522.185 36.605 532.073 46.877 527.369 62.813C524.969 70.973 518.057 75.005 510.761 75.005C500.297 75.005 495.785 66.653 496.553 59.933C497.033 55.805 498.665 52.829 500.969 50.525H501.833C500.489 53.885 500.585 58.493 503.753 58.493C505.097 58.493 505.865 57.725 506.249 56.477C507.593 52.157 503.177 44.573 506.153 34.589C507.977 28.445 514.409 24.317 521.417 24.317C523.337 24.317 525.833 24.893 527.849 26.237L527.465 27.677Z"
    fill="currentColor" />
</svg>
