<svg width="433" height="294" viewBox="0 0 433 294" fill="none" xmlns="http://www.w3.org/2000/svg">
<g clip-path="url(#clip0_206_2565)">
<rect width="19.279" height="55.1574" rx="9.63952" transform="matrix(-0.602939 -0.797788 -0.817336 0.576161 268.947 197.941)" fill="#DE3B04"/>
<path d="M336.316 268.819C328.583 268.078 325.207 269.58 321.867 264.85C319.924 256.966 343.645 260.101 343.944 245.803C347.845 236.678 319.732 218.419 329.678 190.349C337.496 168.274 360.881 154.287 388.334 156.915C430.347 160.938 434.896 190.924 429.582 204.003C424.484 216.575 410.194 226.553 392.6 224.868C376.522 223.329 366.848 211.057 374.887 197.052L376.101 197.168C375.402 202.774 383.506 203.022 384.697 198.387C386.258 193.259 381.946 189.68 377.699 189.273C371.026 188.635 367.353 192.241 366.221 195.166C361.226 208.144 382.215 226.908 375.005 249.04C370.503 262.989 354.062 270.518 336.316 268.819Z" fill="#900021"/>
<path d="M429.627 204.028C424.529 216.601 410.239 226.578 392.645 224.893C376.568 223.354 366.893 211.082 374.933 197.077L376.146 197.193C375.447 202.799 383.551 203.047 384.743 198.412C407.185 201.22 407.186 201.221 429.627 204.028Z" fill="#F8F0DF"/>
<rect width="24.2403" height="86.7293" rx="12.1201" transform="matrix(0.840656 -0.541569 0.568306 0.822817 310.788 172.132)" fill="#DE3B04"/>
<rect width="19.4649" height="54.6319" rx="9.73244" transform="matrix(-0.799461 -0.600717 -0.627347 0.77874 292.095 165.714)" fill="#DE3B04"/>
<rect x="266.228" y="156.287" width="79.7394" height="117.781" rx="39.8697" fill="#DE3B04"/>
<rect x="274.67" y="179.843" width="62.8534" height="92.866" rx="31.4267" fill="#F8F0DF"/>
<rect width="26.9319" height="30.3364" rx="13.4659" transform="matrix(0.82089 -0.571086 0.597876 0.801589 201.922 214.25)" fill="#900021"/>
<rect width="139.117" height="78.5226" rx="32" transform="matrix(0.968109 0.250527 -0.267345 0.963601 240.716 49.1328)" fill="#DE3B04"/>
<path d="M242.296 103.949C249.783 105.616 257.354 107.302 262.983 109.479C273.732 113.637 284.494 121.969 289.321 130.701C297.829 124.709 311.765 121.396 323.886 121.837C330.278 122.07 338.329 123.518 346.292 124.95C361.699 127.722 373.908 133.405 375.975 127.132C376.062 129.714 375.163 130.932 371.576 134.926C367.828 139.1 362.62 135.859 363.85 137.545C365.63 139.987 366.139 141.301 369.66 141.301C373.182 141.301 375.119 137.033 376.879 138.228C361.047 169.29 309.004 167.329 280.219 161.274C252.922 155.533 207.364 137.201 206.612 104.987C207.522 106.047 208.459 107.369 209.407 108.708C212.102 112.513 216.559 112.483 219.114 110.914C220.879 109.83 217.779 108.846 216.269 103.624C214.823 98.6268 213.307 93.3841 214.455 91.054C213.638 97.5685 227.81 100.724 242.296 103.949Z" fill="#F8F0DF"/>
<rect x="237.57" y="116.333" width="5.46966" height="5.25895" rx="2.62947" fill="#3D0325"/>
<rect x="245.859" y="113.704" width="5.46966" height="5.25895" rx="2.62947" fill="#3D0325"/>
<rect x="244.754" y="121.593" width="5.46966" height="5.25895" rx="2.62947" fill="#3D0325"/>
<path d="M293.572 140.435C290.398 143.757 284.798 142.483 283.493 138.142L281.106 130.206C279.8 125.865 283.768 121.712 288.248 122.731L296.438 124.593C300.917 125.612 302.55 131.039 299.375 134.361L293.572 140.435Z" fill="#3D0325"/>
<path d="M308.837 98.4372C310.427 92.7064 316.539 89.3088 322.489 90.8485L337.93 94.8444C343.88 96.3841 347.414 102.278 345.824 108.009L344.577 112.505C342.987 118.236 336.874 121.634 330.925 120.094L315.483 116.098C309.533 114.559 305.999 108.665 307.589 102.934L308.837 98.4372Z" fill="#F8F0DF"/>
<path fill-rule="evenodd" clip-rule="evenodd" d="M324.024 85.3143L339.465 89.3102C348.588 91.671 354.008 100.708 351.57 109.496L350.322 113.992C347.884 122.78 338.512 127.989 329.389 125.628L313.948 121.632C304.825 119.272 299.406 110.234 301.843 101.447L303.091 96.9504C305.529 88.1631 314.901 82.9534 324.024 85.3143ZM322.489 90.8485C316.539 89.3088 310.427 92.7064 308.837 98.4372L307.589 102.934C305.999 108.665 309.533 114.559 315.483 116.098L330.925 120.094C336.874 121.634 342.987 118.236 344.577 112.505L345.824 108.009C347.414 102.278 343.88 96.3841 337.93 94.8444L322.489 90.8485Z" fill="#3D0325"/>
<path d="M252.656 83.8987C254.245 78.1678 260.358 74.7702 266.307 76.3099L281.749 80.3058C287.699 81.8455 291.233 87.7394 289.643 93.4703L288.395 97.9668C286.805 103.698 280.693 107.095 274.743 105.556L259.302 101.56C253.352 100.02 249.818 94.1261 251.408 88.3952L252.656 83.8987Z" fill="#F8F0DF"/>
<path fill-rule="evenodd" clip-rule="evenodd" d="M267.843 70.7757L283.284 74.7716C292.407 77.1325 297.827 86.1698 295.389 94.9572L294.141 99.4537C291.703 108.241 282.331 113.451 273.208 111.09L257.767 107.094C248.644 104.733 243.224 95.6957 245.662 86.9084L246.91 82.4118C249.348 73.6245 258.72 68.4148 267.843 70.7757ZM266.307 76.3099C260.358 74.7702 254.245 78.1678 252.656 83.8987L251.408 88.3952C249.818 94.1261 253.352 100.02 259.302 101.56L274.743 105.556C280.693 107.095 286.805 103.698 288.395 97.9668L289.643 93.4703C291.233 87.7394 287.699 81.8455 281.749 80.3058L266.307 76.3099Z" fill="#3D0325"/>
<rect width="18.7199" height="6.35737" transform="matrix(0.968109 0.250528 -0.267344 0.963601 231.671 77.8296)" fill="#2E091E"/>
<rect width="12.6359" height="6.35737" transform="matrix(0.968109 0.250528 -0.267344 0.963601 293.742 93.8923)" fill="#2E091E"/>
<rect width="18.7199" height="6.35737" transform="matrix(0.968109 0.250528 -0.267344 0.963601 349.923 108.431)" fill="#2E091E"/>
<rect width="14.9759" height="19.0721" rx="7.48796" transform="matrix(0.968109 0.250527 -0.267345 0.963601 320.473 100.81)" fill="#3D0325"/>
<rect width="14.9759" height="19.0721" rx="7.48796" transform="matrix(0.968109 0.250528 -0.267344 0.963601 266.557 86.8574)" fill="#3D0325"/>
<rect width="3.27773" height="5.13537" rx="1.63886" transform="matrix(0.975726 0.218995 -0.233952 0.972248 271.877 88.2712)" fill="#F8F0DF"/>
<rect width="3.27772" height="5.13537" rx="1.63886" transform="matrix(0.975726 0.218995 -0.233952 0.972248 324.55 102.767)" fill="#F8F0DF"/>
<path d="M264.807 138.097C266.965 141.927 269.86 145.271 273.328 147.939C276.795 150.606 280.767 152.545 285.016 153.645C289.266 154.744 293.709 154.983 298.093 154.347C302.477 153.712 306.716 152.214 310.567 149.939" stroke="#2E091E" stroke-width="8" stroke-linecap="round"/>
<path d="M345.698 72.1944C349.505 66.3542 353.807 60.9231 358.456 56.0979C364.38 49.9483 370.752 44.9033 377.207 41.2508C381.546 38.7957 385.865 37.0021 390.054 35.9079C391.246 39.9561 391.889 44.4734 391.957 49.3478C392.059 56.5996 390.888 64.4997 388.512 72.5972C386.648 78.9508 384.07 85.3283 380.876 91.5052C369.076 114.325 337.825 85.7056 345.698 72.1944Z" fill="#DE3B04"/>
<path d="M364.63 49.9386C368.797 46.2963 373.113 43.1991 377.467 40.7355C381.805 38.2804 386.125 36.4868 390.313 35.3926C391.506 39.4408 392.148 43.9581 392.217 48.8325C392.294 54.3594 391.633 60.2629 390.262 66.3433C387.821 67.0362 385.202 67.2899 382.515 67.0187C372.972 66.0557 365.689 58.7865 364.63 49.9386Z" fill="#F8F0DF"/>
<path d="M349.259 73.0641C352.357 68.0395 355.883 63.3513 359.716 59.1693C364.6 53.8394 369.887 49.436 375.275 46.2105C378.897 44.0425 382.517 42.4351 386.041 41.4229C387.14 44.8276 387.782 48.641 387.947 52.7686C388.191 58.9092 387.372 65.625 385.535 72.5325C384.095 77.9524 382.05 83.4071 379.479 88.7045C369.981 108.275 342.886 84.6695 349.259 73.0641Z" fill="#900021"/>
<path d="M271.51 53.8276C270.905 46.951 269.666 40.2184 267.832 33.8703C265.493 25.7798 262.232 18.4721 258.235 12.3645C255.548 8.25918 252.565 4.75009 249.364 1.92029C246.38 4.98729 243.661 8.71509 241.282 13.0147C237.743 19.4113 235.026 26.9482 233.286 35.1951C231.921 41.666 231.178 48.4746 231.078 55.3782C230.709 80.8829 272.078 69.3213 271.51 53.8276Z" fill="#DE3B04"/>
<path d="M265.276 25.6602C263.307 20.5767 260.945 15.9111 258.25 11.7916C255.563 7.68623 252.579 4.17714 249.378 1.34735C246.394 4.41435 243.675 8.14214 241.296 12.4418C238.599 17.3169 236.38 22.8543 234.706 28.8637C236.545 30.5619 238.75 31.9487 241.266 32.8996C250.202 36.2772 260.128 33.0504 265.276 25.6602Z" fill="#F8F0DF"/>
<path d="M267.933 53.0203C267.57 47.1829 266.668 41.4546 265.252 36.0398C263.448 29.1387 260.845 22.8821 257.592 17.627C255.406 14.0946 252.955 11.0613 250.306 8.59901C247.711 11.1362 245.327 14.2386 243.218 17.8322C240.081 23.1786 237.615 29.5076 235.961 36.458C234.664 41.9116 233.886 47.6638 233.651 53.5098C232.781 75.1069 268.075 66.1564 267.933 53.0203Z" fill="#900021"/>
<rect x="322.469" y="135.813" width="5.46966" height="5.25895" rx="2.62947" fill="#3D0325"/>
<rect x="330.758" y="133.183" width="5.46966" height="5.25895" rx="2.62947" fill="#3D0325"/>
<rect x="329.653" y="141.072" width="5.46966" height="5.25895" rx="2.62947" fill="#3D0325"/>
<rect x="162.521" y="192.074" width="78.8228" height="71.2964" rx="35.6482" transform="rotate(90 162.521 192.074)" fill="#D6AA9B"/>
<rect width="166.743" height="102.921" rx="51.4605" transform="matrix(0.96518 -0.261586 0.279028 0.960283 18.1606 133.824)" fill="#D6AA9B"/>
<path d="M124.892 206.346C124.892 206.346 106.103 211.208 92.0438 214.846C69.1482 220.771 45.1457 205.96 38.4327 181.764C31.7198 157.568 44.8384 133.15 67.734 127.225C81.7934 123.587 96.2703 127.768 106.905 137.14C111.263 123.888 121.635 113.277 135.695 109.638C158.59 103.713 182.593 118.525 189.306 142.721C196.019 166.917 182.9 191.334 160.005 197.259C145.945 200.898 124.892 206.346 124.892 206.346Z" fill="#E7CAC0"/>
<path d="M124.11 201.264C124.11 201.264 107.3 205.614 94.7206 208.87C74.2358 214.171 53.1799 202.43 47.691 182.646C42.2021 162.862 54.3587 142.527 74.8435 137.226C87.4226 133.971 100.217 137.141 109.49 144.655C113.631 133.67 123.07 124.746 135.649 121.491C156.133 116.19 177.189 127.93 182.678 147.714C188.167 167.498 176.011 187.833 155.526 193.134C142.947 196.39 124.11 201.264 124.11 201.264Z" fill="#F8F0DF"/>
<path d="M137.113 173.483C139.481 171.12 137.692 167.976 134.38 168.679L116.137 172.554C113.64 173.084 112.065 175.555 113.083 177.343C113.083 177.343 114.103 179.362 114.443 180.749C114.758 182.038 114.443 186.638 114.443 186.638C114.443 186.638 115.203 188.367 117.693 188.969L135.888 193.367C139.19 194.166 141.115 191.097 138.829 188.679L130.604 179.981L137.113 173.483Z" fill="#DE3B04"/>
<path d="M166.018 202.42C157.985 197.802 147.628 200.064 142.157 207.513V207.513C135.483 216.599 138.949 229.243 149.354 233.762L170.27 242.847C184.478 249.018 201.423 244.367 208.076 230.584V230.584C209.373 227.898 183.11 212.246 166.018 202.42Z" fill="#D6AA9B"/>
<rect x="193.948" y="188.45" width="36.1173" height="48.4715" rx="8" fill="#08A28A"/>
<rect width="36.0423" height="48.5791" rx="8" transform="matrix(0.970707 0.240266 -0.25649 0.966547 198.903 186.185)" fill="#07C9AC"/>
<path d="M196.443 220.864C201.299 223.572 206.405 231.142 201.29 233.513C200.788 233.745 200.211 233.739 199.547 233.391C196.835 231.97 188.243 227.146 183.057 224.224C180.79 222.947 180.043 220.112 181.378 217.879V217.879C182.719 215.636 185.656 214.85 187.938 216.122L196.443 220.864Z" fill="#D6AA9B"/>
<rect x="79.0293" y="199.503" width="3.16992" height="3.08043" rx="1.54022" fill="#3D0325"/>
<rect x="83.8335" y="197.963" width="3.16992" height="3.08043" rx="1.54022" fill="#3D0325"/>
<rect x="83.1929" y="202.584" width="3.16992" height="3.08043" rx="1.54022" fill="#3D0325"/>
<rect x="162.052" y="173.682" width="3.16992" height="3.08043" rx="1.54021" fill="#3D0325"/>
<rect x="166.856" y="172.142" width="3.16992" height="3.08043" rx="1.54021" fill="#3D0325"/>
<rect x="166.216" y="176.762" width="3.16992" height="3.08043" rx="1.54021" fill="#3D0325"/>
<ellipse cx="79.0292" cy="168.971" rx="17.8241" ry="17.2142" fill="#2E091E"/>
<ellipse cx="77.6223" cy="158.552" rx="3.28339" ry="3.17103" fill="#F8F0DF"/>
<ellipse cx="80.671" cy="163.308" rx="1.64169" ry="1.58552" fill="#F8F0DF"/>
<ellipse cx="146.104" cy="148.586" rx="17.8241" ry="17.2142" fill="#2E091E"/>
<ellipse cx="144.697" cy="138.166" rx="3.28339" ry="3.17103" fill="#F8F0DF"/>
<ellipse cx="147.746" cy="142.923" rx="1.64169" ry="1.58552" fill="#F8F0DF"/>
<ellipse cx="5.15796" cy="2.71896" rx="5.15796" ry="2.71896" transform="matrix(0.995564 -0.0940914 0.10081 0.994906 107.642 218.316)" fill="#E7CAC0"/>
<ellipse cx="5.15796" cy="2.71896" rx="5.15796" ry="2.71896" transform="matrix(0.995564 -0.0940914 0.10081 0.994906 118.506 223.207)" fill="#E7CAC0"/>
<ellipse cx="5.15796" cy="2.71896" rx="5.15796" ry="2.71896" transform="matrix(0.995564 -0.0940914 0.10081 0.994906 132.703 219.134)" fill="#E7CAC0"/>
<ellipse cx="5.15796" cy="2.71896" rx="5.15796" ry="2.71896" transform="matrix(0.995564 -0.0940914 0.10081 0.994906 129.461 228.999)" fill="#E7CAC0"/>
<ellipse cx="5.15796" cy="2.71896" rx="5.15796" ry="2.71896" transform="matrix(0.995564 -0.0940914 0.10081 0.994906 121.839 214.243)" fill="#E7CAC0"/>
<ellipse cx="5.15796" cy="2.71896" rx="5.15796" ry="2.71896" transform="matrix(0.995564 -0.0940914 0.10081 0.994906 135.103 210.259)" fill="#E7CAC0"/>
<path d="M85.0732 219.242C93.4094 217.312 101.879 222.151 104.552 230.266V230.266C107.739 239.938 101.397 249.974 91.2651 251.292L61.9498 255.107C48.0776 256.912 34.7031 248.353 33.1771 234.551V234.551C32.8683 231.758 65.349 223.807 85.0732 219.242Z" fill="#D6AA9B"/>
<rect width="35.9063" height="48.7732" rx="8" transform="matrix(0.914647 -0.404254 0.428211 0.903679 0.228027 212.479)" fill="#08A28A"/>
<path d="M46.9841 228.935C41.648 230.56 34.8874 237.064 39.4958 240.301C39.9254 240.602 40.4741 240.701 41.1718 240.508C44.1461 239.686 53.6611 236.758 59.3741 234.992C61.8454 234.227 63.1896 231.622 62.3869 229.163V229.163C61.5808 226.693 58.9123 225.304 56.4268 226.061L46.9841 228.935Z" fill="#D6AA9B"/>
<rect x="74.1768" y="247.341" width="320.058" height="46.6595" rx="23.3297" fill="#530F20"/>
<rect x="151.912" y="267.335" width="171.305" height="16.6985" rx="8.34926" fill="#08A28A"/>
<path d="M240.093 278.114C244.282 278.114 247.726 274.655 245.549 271.216C243.396 267.817 239.663 264.691 234.58 262.12C226.192 257.878 214.817 255.495 202.956 255.495C191.095 255.495 179.719 257.878 171.332 262.12C166.249 264.691 162.516 267.817 160.363 271.216C158.186 274.655 161.629 278.114 165.819 278.114L240.093 278.114Z" fill="#F8F0DF"/>
<path d="M309.943 278.114C314.132 278.114 317.575 274.655 315.398 271.216C313.246 267.817 309.513 264.691 304.429 262.12C296.042 257.878 284.667 255.495 272.806 255.495C260.944 255.495 249.569 257.878 241.182 262.12C236.098 264.691 232.365 267.817 230.213 271.216C228.036 274.655 231.479 278.114 235.668 278.114L309.943 278.114Z" fill="#F8F0DF"/>
<rect width="34.2508" height="42.8607" rx="8" transform="matrix(0.968109 -0.250528 0.267344 0.963601 301.831 220.587)" fill="#01705F"/>
<rect x="307.953" y="215.094" width="34.7101" height="42.1294" rx="8" fill="#08A28A"/>
<rect width="21.0966" height="42.5923" rx="10.5483" transform="matrix(-0.742527 -0.669816 -0.695195 0.718821 377.663 229.225)" fill="#DE3B04"/>
<rect x="324.415" y="228.684" width="29.5505" height="34.8814" rx="14.7752" fill="#900021"/>
</g>
<defs>
<clipPath id="clip0_206_2565">
<rect width="432" height="294" fill="white" transform="translate(0.228027)"/>
</clipPath>
</defs>
</svg>
