<svg width="921" height="649" viewBox="0 0 921 649" fill="none" xmlns="http://www.w3.org/2000/svg">
<g clip-path="url(#clip0_206_1969)">
<rect width="42.0346" height="118.992" rx="21.0173" transform="matrix(-0.58956 -0.807725 -0.807725 0.58956 572.895 436.952)" fill="#DE3B04"/>
<path d="M716.522 593.413C700.035 591.779 692.838 595.094 685.717 584.652C681.575 567.249 732.147 574.168 732.784 542.606C741.1 522.463 681.165 482.157 702.37 420.192C719.037 371.463 768.893 340.586 827.42 346.388C916.99 355.267 926.689 421.461 915.358 450.334C904.49 478.087 874.024 500.111 836.515 496.393C802.239 492.995 781.614 465.906 798.754 434.988L801.34 435.245C799.85 447.619 817.127 448.167 819.668 437.935C822.994 426.616 813.802 418.716 804.748 417.818C790.52 416.408 782.69 424.368 780.276 430.827C769.627 459.475 814.376 500.896 799.003 549.753C789.405 580.544 754.355 597.163 716.522 593.413Z" fill="#900021"/>
<path d="M915.455 450.389C904.587 478.142 874.121 500.167 836.611 496.448C802.335 493.051 781.711 465.961 798.85 435.044L801.437 435.3C799.947 447.675 817.223 448.223 819.764 437.991C867.61 444.19 867.612 444.193 915.455 450.389Z" fill="#F8F0DF"/>
<rect x="662.096" y="379.979" width="52.2226" height="189.362" rx="26.1113" transform="rotate(-33.7052 662.096 379.979)" fill="#DE3B04"/>
<rect width="42.0346" height="130.706" rx="21.0173" transform="matrix(-0.789257 -0.614063 -0.614063 0.789257 629.438 356.566)" fill="#DE3B04"/>
<rect x="567.096" y="345" width="170" height="260" rx="85" fill="#DE3B04"/>
<rect x="585.096" y="397" width="134" height="205" rx="67" fill="#F8F0DF"/>
<rect x="430" y="472.952" width="58.0886" height="66.1571" rx="29.0443" transform="rotate(-35.7667 430 472.952)" fill="#900021"/>
<rect x="526.27" y="113.342" width="297.26" height="172.92" rx="32" transform="rotate(12.2692 526.27 113.342)" fill="#DE3B04"/>
<path d="M535.401 234.05C551.52 236.965 567.819 239.913 580.035 244.142C603.363 252.219 627.156 269.496 638.354 288.26C655.843 274.185 685.172 265.465 711.029 265.206C724.665 265.069 741.964 267.445 759.071 269.794C792.172 274.34 818.769 285.632 822.51 271.59C822.967 277.273 821.18 280.05 813.962 289.223C806.419 298.807 794.989 292.188 797.785 295.783C801.832 300.985 803.054 303.831 810.554 303.474C818.053 303.116 821.729 293.509 825.604 295.965C795.154 366.064 684.122 367.025 622.187 356.599C563.454 346.712 464.509 310.919 459.52 239.963C461.57 242.207 463.703 245.027 465.863 247.883C472.001 255.999 481.49 255.482 486.766 251.762C490.41 249.193 483.705 247.337 479.94 235.977C476.336 225.105 472.556 213.699 474.755 208.444C473.7 222.891 504.212 228.409 535.401 234.05Z" fill="#F8F0DF"/>
<rect x="526.638" y="261.837" width="11.661" height="11.609" rx="5.80452" transform="rotate(-2.73075 526.638 261.837)" fill="#3D0325"/>
<rect x="544.014" y="255.198" width="11.661" height="11.609" rx="5.80452" transform="rotate(-2.73075 544.014 255.198)" fill="#3D0325"/>
<rect x="542.49" y="272.704" width="11.661" height="11.609" rx="5.80452" transform="rotate(-2.73075 542.49 272.704)" fill="#3D0325"/>
<path d="M648.432 309.292C642.021 316.94 629.962 314.7 626.725 305.261L620.808 288.004C617.571 278.564 625.584 269.004 635.231 270.796L652.867 274.071C662.514 275.862 666.56 287.662 660.15 295.31L648.432 309.292Z" fill="#3D0325"/>
<path d="M676.52 215.138C679.304 202.34 691.962 194.227 704.795 197.018L738.098 204.26C750.93 207.051 759.076 219.688 756.293 232.486L754.109 242.527C751.326 255.325 738.667 263.438 725.835 260.647L692.532 253.405C679.7 250.614 671.553 237.977 674.337 225.179L676.52 215.138Z" fill="#F8F0DF"/>
<path fill-rule="evenodd" clip-rule="evenodd" d="M707.482 184.659L740.785 191.902C760.461 196.181 772.952 215.557 768.685 235.181L766.501 245.222C762.233 264.846 742.823 277.285 723.147 273.006L689.844 265.763C670.168 261.484 657.677 242.108 661.945 222.484L664.129 212.443C668.396 192.819 687.806 180.38 707.482 184.659ZM704.795 197.018C691.962 194.227 679.304 202.34 676.52 215.138L674.337 225.179C671.553 237.977 679.7 250.614 692.532 253.405L725.835 260.647C738.667 263.438 751.326 255.325 754.109 242.527L756.293 232.486C759.076 219.688 750.93 207.051 738.098 204.26L704.795 197.018Z" fill="#3D0325"/>
<path d="M555.353 188.787C558.136 175.989 570.795 167.876 583.627 170.667L616.93 177.91C629.762 180.7 637.908 193.337 635.125 206.135L632.941 216.177C630.158 228.975 617.499 237.087 604.667 234.296L571.364 227.054C558.532 224.263 550.386 211.626 553.169 198.828L555.353 188.787Z" fill="#F8F0DF"/>
<path fill-rule="evenodd" clip-rule="evenodd" d="M586.315 158.308L619.618 165.551C639.294 169.83 651.785 189.207 647.517 208.83L645.333 218.872C641.066 238.495 621.656 250.934 601.98 246.655L568.677 239.413C549.001 235.134 536.51 215.757 540.777 196.133L542.961 186.092C547.228 166.468 566.639 154.029 586.315 158.308ZM583.627 170.667C570.795 167.876 558.136 175.989 555.353 188.787L553.169 198.828C550.386 211.626 558.532 224.263 571.364 227.054L604.667 234.296C617.499 237.087 630.158 228.975 632.941 216.177L635.125 206.135C637.908 193.337 629.762 180.7 616.93 177.91L583.627 170.667Z" fill="#3D0325"/>
<rect x="510.027" y="177.536" width="40" height="14" transform="rotate(12.2692 510.027 177.536)" fill="#2E091E"/>
<rect x="643.898" y="206.649" width="27" height="14" transform="rotate(12.2692 643.898 206.649)" fill="#2E091E"/>
<rect x="765.066" y="233" width="40" height="14" transform="rotate(12.2692 765.066 233)" fill="#2E091E"/>
<rect x="701.55" y="219.187" width="32" height="42" rx="16" transform="rotate(12.2692 701.55 219.187)" fill="#3D0325"/>
<rect x="585.268" y="193.899" width="32" height="42" rx="16" transform="rotate(12.2692 585.268 193.899)" fill="#3D0325"/>
<rect x="589.033" y="200" width="7" height="11.3154" rx="3.5" transform="rotate(10.3523 589.033 200)" fill="#F8F0DF"/>
<rect x="706.033" y="227" width="7" height="11.3154" rx="3.5" transform="rotate(10.3523 706.033 227)" fill="#F8F0DF"/>
<path fill-rule="evenodd" clip-rule="evenodd" d="M688.932 326.276C690.173 328.104 689.697 330.591 687.87 331.832C679.473 337.533 670.107 341.479 660.304 343.432C650.5 345.386 640.457 345.308 630.751 343.197C621.045 341.087 611.877 336.987 603.77 331.138C595.663 325.289 588.782 317.81 583.511 309.137C582.364 307.249 582.965 304.789 584.852 303.641C586.74 302.494 589.201 303.095 590.348 304.982C595.074 312.759 601.227 319.439 608.45 324.65C615.673 329.861 623.828 333.505 632.451 335.38C641.074 337.255 650.006 337.327 658.741 335.587C667.475 333.846 675.848 330.325 683.376 325.214C685.204 323.973 687.691 324.448 688.932 326.276Z" fill="#2E091E"/>
<path d="M752.256 153.529C759.75 140.265 768.34 127.852 777.732 116.741C789.702 102.579 802.74 90.8079 816.102 82.0987C825.083 76.2445 834.093 71.8509 842.898 69.0129C845.863 77.8178 847.706 87.7132 848.365 98.4543C849.344 114.434 847.682 131.972 843.474 150.069C840.172 164.267 835.352 178.591 829.2 192.536C806.472 244.052 736.914 184.121 752.256 153.529Z" fill="#DE3B04"/>
<path d="M790.234 102.532C798.723 94.078 807.588 86.8105 816.601 80.9361C825.582 75.0819 834.592 70.6883 843.397 67.8503C846.362 76.6552 848.205 86.5506 848.864 97.2917C849.61 109.47 848.822 122.555 846.542 136.101C841.417 137.877 835.867 138.702 830.117 138.377C809.692 137.223 793.418 121.934 790.234 102.532Z" fill="#F8F0DF"/>
<path d="M759.933 155.085C766.002 143.691 773.017 132.996 780.738 123.385C790.579 111.137 801.376 100.89 812.511 93.231C819.995 88.0825 827.534 84.1707 834.933 81.5808C837.63 88.9766 839.4 97.3197 840.184 106.404C841.35 119.919 840.312 134.811 837.128 150.228C834.63 162.325 830.849 174.56 825.932 186.502C807.764 230.619 747.581 181.322 759.933 155.085Z" fill="#900021"/>
<path d="M592.341 120.566C590.33 105.465 586.983 90.7453 582.408 76.9341C576.578 59.3323 568.865 43.5502 559.711 30.4892C553.558 21.7098 546.834 14.2755 539.721 8.36091C533.688 15.4267 528.291 23.9226 523.677 33.6447C516.814 48.1085 511.821 65.0032 508.983 83.3642C506.756 97.771 505.891 112.859 506.404 128.092C508.298 184.366 595.179 154.671 592.341 120.566Z" fill="#DE3B04"/>
<path d="M576.102 59.0907C571.374 48.0817 565.856 38.0341 559.681 29.2244C553.528 20.4451 546.805 13.0107 539.691 7.09613C533.659 14.1619 528.261 22.6578 523.647 32.38C518.417 43.4034 514.272 55.8388 511.34 69.2593C515.435 72.8171 520.277 75.651 525.734 77.4922C545.118 84.032 565.917 75.9087 576.102 59.0907Z" fill="#F8F0DF"/>
<path d="M584.637 119.149C583.252 106.315 580.727 93.7756 577.143 81.9798C572.575 66.9465 566.374 53.415 558.895 42.158C553.868 34.5913 548.33 28.1519 542.429 22.9917C537.17 28.8497 532.419 35.9325 528.306 44.0706C522.188 56.1778 517.603 70.3836 514.812 85.8771C512.623 98.0338 511.572 110.796 511.685 123.711C512.105 171.42 586.323 148.099 584.637 119.149Z" fill="#900021"/>
<rect x="709.481" y="296.165" width="11.661" height="11.609" rx="5.80452" transform="rotate(-2.73075 709.481 296.165)" fill="#3D0325"/>
<rect x="726.857" y="289.525" width="11.661" height="11.609" rx="5.80452" transform="rotate(-2.73075 726.857 289.525)" fill="#3D0325"/>
<rect x="725.333" y="307.031" width="11.661" height="11.609" rx="5.80452" transform="rotate(-2.73075 725.333 307.031)" fill="#3D0325"/>
<rect x="346" y="424" width="174" height="152" rx="76" transform="rotate(90 346 424)" fill="#D6AA9B"/>
<rect x="38.2314" y="295.415" width="356.364" height="226.6" rx="113.3" transform="rotate(-15.6755 38.2314 295.415)" fill="#D6AA9B"/>
<path d="M265.776 455.505C265.776 455.505 225.72 466.238 195.746 474.269C146.934 487.348 95.7621 454.652 81.4504 401.24C67.1388 347.828 95.1069 293.927 143.919 280.848C173.893 272.816 204.757 282.046 227.429 302.733C236.72 273.481 258.834 250.056 288.808 242.025C337.62 228.946 388.792 261.642 403.104 315.054C417.415 368.465 389.447 422.367 340.635 435.446C310.661 443.478 265.776 455.505 265.776 455.505Z" fill="#E7CAC0"/>
<path d="M264.109 444.287C264.109 444.287 228.271 453.89 201.453 461.076C157.78 472.778 112.89 446.861 101.188 403.188C89.4864 359.515 115.404 314.625 159.076 302.923C185.894 295.738 213.171 302.737 232.94 319.323C241.769 295.075 261.891 275.374 288.709 268.188C332.382 256.486 377.272 282.404 388.974 326.076C400.676 369.749 374.759 414.639 331.086 426.341C304.268 433.527 264.109 444.287 264.109 444.287Z" fill="#F8F0DF"/>
<path d="M291.832 382.961C296.88 377.744 293.066 370.803 286.006 372.356L247.111 380.91C241.789 382.08 238.431 387.533 240.6 391.482C240.6 391.482 242.776 395.937 243.5 399C244.172 401.845 243.5 412 243.5 412C243.5 412 245.122 415.816 250.429 417.145L289.219 426.855C296.26 428.617 300.364 421.844 295.489 416.506L277.954 397.305L291.832 382.961Z" fill="#DE3B04"/>
<path d="M353.741 447.01C336.448 436.714 314.269 441.611 302.624 458.027C288.386 478.098 296.023 506.175 318.466 516.268L361.946 535.823C392.586 549.603 428.925 539.46 443.121 509.011C445.879 503.096 390.186 468.71 353.741 447.01Z" fill="#D6AA9B"/>
<rect x="413" y="416" width="77" height="107" rx="8" fill="#08A28A"/>
<rect x="423.564" y="411" width="77" height="107" rx="8" transform="rotate(14.3747 423.564 411)" fill="#07C9AC"/>
<path d="M418.241 487.51C428.63 493.508 439.356 509.582 428.851 515.373C427.737 515.987 426.441 516.024 424.936 515.208C419.181 512.085 401.003 501.518 389.931 495.059C385.015 492.191 383.355 485.894 386.201 480.965C389.06 476.014 395.391 474.317 400.342 477.176L418.241 487.51Z" fill="#D6AA9B"/>
<rect x="168" y="440.4" width="6.75809" height="6.8" rx="3.37905" fill="#3D0325"/>
<rect x="178.242" y="437" width="6.75809" height="6.8" rx="3.37905" fill="#3D0325"/>
<rect x="176.876" y="447.2" width="6.75809" height="6.8" rx="3.37905" fill="#3D0325"/>
<rect x="345" y="383.4" width="6.75809" height="6.8" rx="3.37905" fill="#3D0325"/>
<rect x="355.242" y="380" width="6.75809" height="6.8" rx="3.37905" fill="#3D0325"/>
<rect x="353.876" y="390.2" width="6.75809" height="6.8" rx="3.37905" fill="#3D0325"/>
<circle cx="168" cy="373" r="38" fill="#2E091E"/>
<circle cx="165" cy="350" r="7" fill="#F8F0DF"/>
<circle cx="171.5" cy="360.5" r="3.5" fill="#F8F0DF"/>
<circle cx="311" cy="328" r="38" fill="#2E091E"/>
<circle cx="308" cy="305" r="7" fill="#F8F0DF"/>
<circle cx="314.5" cy="315.5" r="3.5" fill="#F8F0DF"/>
<ellipse cx="240.532" cy="486.829" rx="11" ry="6" transform="rotate(-5.58913 240.532 486.829)" fill="#E7CAC0"/>
<ellipse cx="263.694" cy="497.625" rx="11" ry="6" transform="rotate(-5.58913 263.694 497.625)" fill="#E7CAC0"/>
<ellipse cx="293.962" cy="488.634" rx="11" ry="6" transform="rotate(-5.58913 293.962 488.634)" fill="#E7CAC0"/>
<ellipse cx="287.05" cy="510.411" rx="11" ry="6" transform="rotate(-5.58913 287.05 510.411)" fill="#E7CAC0"/>
<ellipse cx="270.8" cy="477.839" rx="11" ry="6" transform="rotate(-5.58913 270.8 477.839)" fill="#E7CAC0"/>
<ellipse cx="299.078" cy="469.043" rx="11" ry="6" transform="rotate(-5.58913 299.078 469.043)" fill="#E7CAC0"/>
<path d="M180.104 484.159C198.322 479.788 216.692 490.326 222.373 508.179V508.179C229.176 529.559 215.032 551.901 192.796 554.897L133 562.954C102.574 567.054 73.5055 548.294 70.2456 517.767V517.767C69.5914 511.64 137.983 494.265 180.104 484.159Z" fill="#D6AA9B"/>
<rect y="469.042" width="77" height="107" rx="8" transform="rotate(-24.5906 0 469.042)" fill="#08A28A"/>
<path d="M99.8228 505.326C88.3818 508.932 74.4296 522.303 83.4322 530.231C84.3866 531.072 85.6438 531.389 87.2901 530.917C93.5846 529.115 113.619 522.734 125.827 518.826C131.248 517.09 134.231 511.302 132.52 505.873C130.801 500.42 124.987 497.393 119.534 499.112L99.8228 505.326Z" fill="#D6AA9B"/>
<rect x="157.655" y="546" width="682.345" height="103" rx="51.5" fill="#530F20"/>
<rect x="323.382" y="590.138" width="365.213" height="36.8617" rx="18.4309" fill="#08A28A"/>
<path d="M511.379 613.931C520.31 613.931 527.651 606.295 523.01 598.705C518.421 591.201 510.462 584.3 499.624 578.624C481.744 569.261 457.492 564 432.204 564C406.917 564 382.665 569.261 364.785 578.624C353.947 584.3 345.988 591.201 341.399 598.705C336.758 606.295 344.099 613.931 353.03 613.931L511.379 613.931Z" fill="#F8F0DF"/>
<path d="M660.294 613.931C669.226 613.931 676.566 606.295 671.925 598.705C667.337 591.201 659.378 584.3 648.54 578.624C630.659 569.261 606.407 564 581.12 564C555.833 564 531.581 569.261 513.7 578.624C502.863 584.3 494.903 591.201 490.315 598.705C485.674 606.295 493.014 613.931 501.946 613.931L660.294 613.931Z" fill="#F8F0DF"/>
<rect x="643" y="486.942" width="73.1859" height="94.3866" rx="8" transform="rotate(-15 643 486.942)" fill="#01705F"/>
<rect x="656.052" y="474.817" width="74" height="93" rx="8" fill="#08A28A"/>
<rect width="45.6987" height="92.4808" rx="22.8494" transform="matrix(-0.730798 -0.682594 -0.682594 0.730798 804.669 506.01)" fill="#DE3B04"/>
<rect x="691.148" y="504.817" width="63" height="77" rx="31.5" fill="#900021"/>
</g>
<defs>
<clipPath id="clip0_206_1969">
<rect width="921" height="649" fill="white"/>
</clipPath>
</defs>
</svg>
