<svg width="370" height="331" viewBox="0 0 370 331" fill="none" xmlns="http://www.w3.org/2000/svg">
<path d="M38.303 145.283C38.2341 127.61 52.5051 113.227 70.1781 113.159L303.436 112.25C321.109 112.181 335.492 126.452 335.561 144.125L335.985 253.044C336.054 270.717 321.783 285.1 304.11 285.168L70.8519 286.077C53.179 286.146 38.7963 271.875 38.7275 254.202L38.303 145.283Z" fill="#DE3B04"/>
<path d="M73.2036 229.158C89.571 228.518 106.122 227.87 118.964 229.357C143.487 232.197 170.454 243.918 185.446 259.815C199.475 242.29 226.224 227.432 251.412 221.586C264.696 218.503 282.099 217.081 299.309 215.674C332.61 212.952 361.02 218.224 361.635 203.704C363.311 209.154 362.167 212.252 357.104 222.769C351.813 233.758 339.222 229.768 342.729 232.673C347.805 236.877 349.614 239.391 356.859 237.42C364.103 235.448 365.614 225.273 369.928 226.833C355.363 301.86 247.168 326.815 184.444 330.033C124.962 333.085 20.6173 319.542 0.398193 251.346C2.88457 253.093 5.57725 255.385 8.30402 257.706C16.0528 264.302 25.205 261.744 29.5511 256.972C32.5533 253.676 25.6059 253.314 19.4723 243.037C13.6023 233.201 7.44415 222.883 8.45459 217.277C10.55 231.611 41.5331 230.398 73.2036 229.158Z" fill="#F8F0DF"/>
<path d="M72.1833 263.784C71.3415 260.691 73.1918 257.494 76.285 256.652C79.3783 255.811 82.5934 257.629 83.4351 260.722C84.2769 263.816 82.4266 267.012 79.3334 267.854C76.2401 268.696 73.0251 266.878 72.1833 263.784Z" fill="#3D0325"/>
<path d="M87.7113 253.543C86.8695 250.45 88.7198 247.253 91.8131 246.411C94.9063 245.569 98.1214 247.388 98.9632 250.481C99.8049 253.574 97.9546 256.771 94.8614 257.613C91.7681 258.455 88.5531 256.636 87.7113 253.543Z" fill="#3D0325"/>
<path d="M90.0103 270.964C89.1685 267.871 91.0188 264.674 94.112 263.832C97.2053 262.991 100.42 264.809 101.262 267.902C102.104 270.996 100.254 274.192 97.1604 275.034C94.0671 275.876 90.852 274.058 90.0103 270.964Z" fill="#3D0325"/>
<path d="M199.834 278.169C195.23 287.022 182.972 287.444 177.77 278.928L168.259 263.36C163.057 254.844 168.812 243.777 178.618 243.44L196.546 242.822C206.352 242.485 212.855 253.129 208.251 261.983L199.834 278.169Z" fill="#3D0325"/>
<path d="M206.891 180.168C206.84 167.071 217.444 156.412 230.576 156.361L264.657 156.228C277.789 156.177 288.476 166.753 288.527 179.85L288.567 190.126C288.618 203.223 278.014 213.882 264.882 213.933L230.801 214.066C217.669 214.117 206.982 203.541 206.931 190.444L206.891 180.168Z" fill="#F8F0DF"/>
<path fill-rule="evenodd" clip-rule="evenodd" d="M230.527 143.714L264.608 143.581C284.744 143.502 301.131 159.718 301.209 179.8L301.249 190.077C301.327 210.159 285.067 226.502 264.932 226.58L230.85 226.713C210.715 226.792 194.328 210.575 194.25 190.493L194.21 180.217C194.131 160.135 210.391 143.792 230.527 143.714ZM230.576 156.361C217.444 156.412 206.84 167.071 206.891 180.168L206.931 190.444C206.982 203.541 217.669 214.117 230.801 214.066L264.882 213.933C278.014 213.882 288.618 203.223 288.567 190.126L288.527 179.85C288.476 166.753 277.789 156.177 264.657 156.228L230.576 156.361Z" fill="#3D0325"/>
<path d="M82.8921 180.651C82.841 167.554 93.4452 156.896 106.577 156.844L140.658 156.712C153.79 156.66 164.477 167.236 164.528 180.333L164.569 190.609C164.62 203.706 154.015 214.365 140.883 214.416L106.802 214.549C93.6701 214.6 82.9831 204.024 82.9321 190.927L82.8921 180.651Z" fill="#F8F0DF"/>
<path fill-rule="evenodd" clip-rule="evenodd" d="M106.528 144.197L140.609 144.064C160.745 143.986 177.132 160.202 177.21 180.284L177.25 190.56C177.328 210.642 161.068 226.985 140.933 227.063L106.851 227.196C86.7157 227.275 70.329 211.059 70.2507 190.977L70.2107 180.701C70.1324 160.619 86.3922 144.275 106.528 144.197ZM106.577 156.844C93.4452 156.896 82.841 167.554 82.8921 180.651L82.9321 190.927C82.9831 204.024 93.6701 214.6 106.802 214.549L140.883 214.416C154.015 214.365 164.62 203.706 164.569 190.609L164.528 180.333C164.477 167.236 153.79 156.66 140.658 156.712L106.577 156.844Z" fill="#3D0325"/>
<path d="M36.2056 179.471L76.2053 179.315L76.2599 193.315L36.2602 193.471L36.2056 179.471Z" fill="#2E091E"/>
<path d="M173.205 178.937L200.204 178.832L200.259 192.832L173.259 192.937L173.205 178.937Z" fill="#2E091E"/>
<path d="M297.204 178.454L337.203 178.298L337.258 192.298L297.258 192.454L297.204 178.454Z" fill="#2E091E"/>
<path d="M232.266 194.707C232.232 185.871 239.367 178.68 248.204 178.645C257.04 178.611 264.232 185.746 264.266 194.583L264.305 204.583C264.339 213.419 257.204 220.61 248.368 220.645C239.531 220.679 232.34 213.544 232.305 204.707L232.266 194.707Z" fill="#3D0325"/>
<path d="M113.267 195.171C113.233 186.334 120.368 179.143 129.205 179.109C138.041 179.074 145.233 186.21 145.267 195.046L145.306 205.046C145.34 213.883 138.205 221.074 129.368 221.108C120.532 221.143 113.341 214.007 113.306 205.171L113.267 195.171Z" fill="#3D0325"/>
<path d="M118.332 187.811C118.259 185.879 119.767 184.255 121.698 184.183C123.63 184.11 125.254 185.618 125.327 187.549L125.488 191.862C125.56 193.793 124.053 195.418 122.121 195.49C120.189 195.562 118.565 194.055 118.493 192.123L118.332 187.811Z" fill="#F8F0DF"/>
<path d="M238.402 188.863C238.33 186.931 239.837 185.307 241.769 185.235C243.7 185.163 245.325 186.67 245.397 188.602L245.558 192.914C245.63 194.846 244.123 196.47 242.191 196.542C240.26 196.614 238.635 195.107 238.563 193.175L238.402 188.863Z" fill="#F8F0DF"/>
<path fill-rule="evenodd" clip-rule="evenodd" d="M243.049 285.99C244.656 287.506 244.73 290.038 243.214 291.645C236.249 299.027 227.959 304.905 218.81 308.933C209.661 312.961 199.839 315.058 189.906 315.096C179.973 315.135 170.135 313.115 160.955 309.158C151.775 305.202 143.439 299.389 136.417 292.061C134.889 290.466 134.943 287.934 136.538 286.405C138.133 284.877 140.665 284.931 142.193 286.526C148.489 293.096 155.942 298.287 164.121 301.812C172.3 305.337 181.05 307.131 189.875 307.096C198.699 307.062 207.436 305.2 215.587 301.611C223.738 298.022 231.15 292.774 237.395 286.155C238.911 284.548 241.442 284.474 243.049 285.99Z" fill="#2E091E"/>
<path d="M267.507 103.635C271.954 89.064 277.656 75.0874 284.422 62.2073C293.045 45.7919 303.228 31.4789 314.39 20.0854C321.892 12.4271 329.738 6.18866 337.721 1.51326C342.52 9.46829 346.46 18.7306 349.427 29.075C353.839 44.4644 356.011 61.9472 355.816 80.5253C355.664 95.1023 354.057 110.13 351.067 125.075C340.02 180.287 259.145 136.821 267.507 103.635Z" fill="#DE3B04"/>
<path d="M293.554 45.6311C300.014 35.5404 307.097 26.5273 314.625 18.8425C322.128 11.1841 329.974 4.94566 337.956 0.270264C342.756 8.22529 346.696 17.4876 349.662 27.832C353.025 39.5609 355.086 52.5058 355.791 66.2247C351.171 69.0672 345.931 71.0734 340.246 72C320.056 75.2912 300.86 63.8849 293.554 45.6311Z" fill="#F8F0DF"/>
<path d="M275.339 103.494C278.799 91.0569 283.334 79.0973 288.794 68.044C295.753 53.9569 304.077 41.6178 313.292 31.7311C319.485 25.0855 326 19.6355 332.663 15.5066C336.896 22.1438 340.429 29.9065 343.159 38.6064C347.221 51.5493 349.428 66.3127 349.655 82.0538C349.833 94.4049 348.788 107.168 346.57 119.891C338.376 166.893 268.954 131.781 275.339 103.494Z" fill="#900021"/>
<path d="M104.248 106.044C99.017 91.7356 92.5661 78.0886 85.1119 65.594C75.6117 49.6702 64.6678 35.9301 52.9052 25.1584C44.9987 17.918 36.8263 12.114 28.6022 7.87808C24.2406 16.0816 20.8084 25.5439 18.4073 36.0338C14.8351 51.6398 13.6146 69.2146 14.8157 87.7547C15.7581 102.302 18.1768 117.22 21.9726 131.981C35.9954 186.514 114.396 138.728 104.248 106.044Z" fill="#DE3B04"/>
<path d="M75.095 49.5372C68.0979 39.8115 60.5365 31.1955 52.6026 23.93C44.696 16.6896 36.5237 10.8856 28.2996 6.64968C23.938 14.8532 20.5058 24.3155 18.1046 34.8054C15.3821 46.6993 14.0256 59.7369 14.0661 73.4738C18.8334 76.0617 24.1741 77.781 29.9004 78.3981C50.2399 80.5901 68.7891 68.1602 75.095 49.5372Z" fill="#F8F0DF"/>
<path d="M96.4199 106.327C92.2907 94.0965 87.1138 82.4003 81.0627 71.6592C73.3508 57.9699 64.37 46.1001 54.6332 36.7274C48.0883 30.4273 41.288 25.3384 34.4109 21.5767C30.5435 28.4336 27.437 36.3764 25.1822 45.2115C21.8276 58.3555 20.4237 73.2169 21.0506 88.9471C21.5425 101.29 23.2771 113.978 26.1815 126.561C36.9113 173.05 104.328 134.228 96.4199 106.327Z" fill="#900021"/>
<path d="M258.123 257.748C257.281 254.655 259.132 251.458 262.225 250.617C265.318 249.775 268.533 251.593 269.375 254.686C270.217 257.78 268.366 260.976 265.273 261.818C262.18 262.66 258.965 260.842 258.123 257.748Z" fill="#3D0325"/>
<path d="M273.651 247.507C272.809 244.414 274.66 241.217 277.753 240.375C280.846 239.533 284.061 241.352 284.903 244.445C285.745 247.538 283.894 250.735 280.801 251.577C277.708 252.419 274.493 250.6 273.651 247.507Z" fill="#3D0325"/>
<path d="M275.95 264.928C275.108 261.835 276.958 258.638 280.052 257.796C283.145 256.955 286.36 258.773 287.202 261.866C288.044 264.96 286.193 268.156 283.1 268.998C280.007 269.84 276.792 268.022 275.95 264.928Z" fill="#3D0325"/>
</svg>
